<svg xmlns="http://www.w3.org/2000/svg" width="548pt" height="403pt" viewBox="0.00 0.00 548.45 402.96" xmlns:xlink="http://www.w3.org/1999/xlink">
<style>
a.external_repository_anchor {
  fill: #0366d6;
  text-decoration: underline;
}
</style><g id="graph0" class="graph" transform="scale(1 1) rotate(0) translate(4 398.96)">
<title>XHTMLDependenciesGraph</title>
<polygon fill="white" stroke="none" points="-4,4 -4,-398.96 544.45,-398.96 544.45,4 -4,4" />

<g id="node1" class="node">
<title>Bootstring</title>
<ellipse fill="none" stroke="black" cx="52.33" cy="-26.87" rx="52.15" ry="26.74" />
<text text-anchor="middle" x="52.33" y="-30.67" font-family="monospace" font-size="12px"><a href="https://github.com/YOCKOW/SwiftBootstring.git" xlink:href="https://github.com/YOCKOW/SwiftBootstring.git" class="external_repository_anchor">Bootstring</a></text>
<text text-anchor="middle" x="52.33" y="-15.67" font-family="monospace" font-size="12px">@1.1.0</text>
</g>

<g id="node2" class="node">
<title>NetworkGear</title>
<ellipse fill="none" stroke="black" cx="216.33" cy="-296.09" rx="63.78" ry="26.74" />
<text text-anchor="middle" x="216.33" y="-299.89" font-family="monospace" font-size="12px"><a href="https://github.com/YOCKOW/SwiftNetworkGear.git" xlink:href="https://github.com/YOCKOW/SwiftNetworkGear.git" class="external_repository_anchor">NetworkGear</a></text>
<text text-anchor="middle" x="216.33" y="-284.89" font-family="monospace" font-size="12px">@0.16.0</text>
</g>

<g id="edge1" class="edge">
<title>NetworkGear-&gt;Bootstring</title>
<path fill="none" stroke="black" d="M200.9,-269.95C171.34,-221.78 106.69,-116.44 73.26,-61.98" />
<polygon fill="black" stroke="black" points="75.81,-60.44 67.59,-53.75 69.84,-64.1 75.81,-60.44" />
</g>

<g id="node3" class="node">
<title>PublicSuffix</title>
<ellipse fill="none" stroke="black" cx="182.33" cy="-26.87" rx="60.21" ry="26.74" />
<text text-anchor="middle" x="182.33" y="-30.67" font-family="monospace" font-size="12px"><a href="https://github.com/YOCKOW/SwiftPublicSuffix.git" xlink:href="https://github.com/YOCKOW/SwiftPublicSuffix.git" class="external_repository_anchor">PublicSuffix</a></text>
<text text-anchor="middle" x="182.33" y="-15.67" font-family="monospace" font-size="12px">@2.2.0</text>
</g>

<g id="edge2" class="edge">
<title>NetworkGear-&gt;PublicSuffix</title>
<path fill="none" stroke="black" d="M211.84,-268.94C210.02,-257.93 207.96,-244.97 206.33,-233.22 198.14,-174.4 190.51,-105.84 186.14,-64.7" />
<polygon fill="black" stroke="black" points="189.52,-64.43 184.99,-54.85 182.56,-65.16 189.52,-64.43" />
</g>

<g id="node4" class="node">
<title>Ranges</title>
<ellipse fill="none" stroke="black" cx="398.33" cy="-26.87" rx="40.11" ry="26.74" />
<text text-anchor="middle" x="398.33" y="-30.67" font-family="monospace" font-size="12px"><a href="https://github.com/YOCKOW/SwiftRanges.git" xlink:href="https://github.com/YOCKOW/SwiftRanges.git" class="external_repository_anchor">Ranges</a></text>
<text text-anchor="middle" x="398.33" y="-15.67" font-family="monospace" font-size="12px">@3.1.2</text>
</g>

<g id="edge3" class="edge">
<title>NetworkGear-&gt;Ranges</title>
<path fill="none" stroke="black" d="M211.37,-268.95C204.9,-226.61 198.76,-142.49 239.33,-89.74 265.1,-56.23 311.56,-40.85 347.63,-33.81" />
<polygon fill="black" stroke="black" points="348.22,-37.08 357.45,-31.88 347,-30.19 348.22,-37.08" />
</g>

<g id="node6" class="node">
<title>UnicodeSupplement</title>
<ellipse fill="none" stroke="black" cx="339.33" cy="-116.61" rx="90.52" ry="26.74" />
<text text-anchor="middle" x="339.33" y="-120.41" font-family="monospace" font-size="12px"><a href="https://github.com/YOCKOW/SwiftUnicodeSupplement.git" xlink:href="https://github.com/YOCKOW/SwiftUnicodeSupplement.git" class="external_repository_anchor">UnicodeSupplement</a></text>
<text text-anchor="middle" x="339.33" y="-105.41" font-family="monospace" font-size="12px">@1.2.0</text>
</g>

<g id="edge4" class="edge">
<title>NetworkGear-&gt;UnicodeSupplement</title>
<path fill="none" stroke="black" d="M232.81,-270.11C248.43,-246.58 272.65,-210.41 294.33,-179.48 300.67,-170.42 307.65,-160.72 314.18,-151.74" />
<polygon fill="black" stroke="black" points="317.45,-154.19 320.51,-144.05 311.79,-150.07 317.45,-154.19" />
</g>

<g id="node8" class="node">
<title>yExtensions</title>
<ellipse fill="none" stroke="black" cx="421.33" cy="-206.35" rx="58.88" ry="26.74" />
<text text-anchor="middle" x="421.33" y="-210.15" font-family="monospace" font-size="12px"><a href="https://github.com/YOCKOW/ySwiftExtensions.git" xlink:href="https://github.com/YOCKOW/ySwiftExtensions.git" class="external_repository_anchor">yExtensions</a></text>
<text text-anchor="middle" x="421.33" y="-195.15" font-family="monospace" font-size="12px">@1.7.6</text>
</g>

<g id="edge5" class="edge">
<title>NetworkGear-&gt;yExtensions</title>
<path fill="none" stroke="black" d="M260.3,-276.27C292.18,-262.62 335.42,-244.12 369.06,-229.72" />
<polygon fill="black" stroke="black" points="370.36,-232.54 378.17,-225.39 367.6,-226.11 370.36,-232.54" />
</g>

<g id="node5" class="node">
<title>StringComposition</title>
<ellipse fill="none" stroke="black" cx="421.33" cy="-296.09" rx="84.71" ry="26.74" />
<text text-anchor="middle" x="421.33" y="-299.89" font-family="monospace" font-size="12px"><a href="https://github.com/YOCKOW/SwiftStringComposition.git" xlink:href="https://github.com/YOCKOW/SwiftStringComposition.git" class="external_repository_anchor">StringComposition</a></text>
<text text-anchor="middle" x="421.33" y="-284.89" font-family="monospace" font-size="12px">@2.0.4</text>
</g>

<g id="edge6" class="edge">
<title>StringComposition-&gt;yExtensions</title>
<path fill="none" stroke="black" d="M421.33,-269.24C421.33,-261.37 421.33,-252.56 421.33,-244.11" />
<polygon fill="black" stroke="black" points="424.83,-244.32 421.33,-234.32 417.83,-244.32 424.83,-244.32" />
</g>

<g id="edge7" class="edge">
<title>UnicodeSupplement-&gt;Ranges</title>
<path fill="none" stroke="black" d="M356.39,-90.23C362.58,-81.03 369.66,-70.49 376.23,-60.73" />
<polygon fill="black" stroke="black" points="379.64,-62.94 382.31,-52.69 373.83,-59.03 379.64,-62.94" />
</g>

<g id="node7" class="node">
<title>XHTML</title>
<polygon fill="none" stroke="black" points="453.83,-394.96 388.83,-394.96 388.83,-358.96 453.83,-358.96 453.83,-394.96" />
<text text-anchor="middle" x="421.33" y="-373.26" font-family="monospace" font-size="12px">XHTML</text>
</g>

<g id="edge8" class="edge">
<title>XHTML-&gt;NetworkGear</title>
<path fill="none" stroke="black" d="M388.39,-363.29C357.25,-351.31 309.89,-333.09 272.74,-318.79" />
<polygon fill="black" stroke="black" points="274.14,-315.2 263.55,-314.87 271.63,-321.73 274.14,-315.2" />
</g>

<g id="edge9" class="edge">
<title>XHTML-&gt;Ranges</title>
<path fill="none" stroke="black" d="M454.15,-370.25C480.58,-363.73 516.07,-350.22 533.33,-322.96 546.1,-302.78 538.24,-292.59 533.33,-269.22 515.39,-183.93 501.73,-162.87 454.33,-89.74 446.94,-78.34 437.45,-67 428.39,-57.19" />
<polygon fill="black" stroke="black" points="431.37,-55.19 421.94,-50.35 426.29,-60.01 431.37,-55.19" />
</g>

<g id="edge10" class="edge">
<title>XHTML-&gt;StringComposition</title>
<path fill="none" stroke="black" d="M421.33,-358.85C421.33,-351.52 421.33,-342.66 421.33,-333.97" />
<polygon fill="black" stroke="black" points="424.83,-334.17 421.33,-324.17 417.83,-334.17 424.83,-334.17" />
</g>

<g id="edge11" class="edge">
<title>XHTML-&gt;UnicodeSupplement</title>
<path fill="none" stroke="black" d="M388.6,-366.96C367.05,-359.14 340.46,-345.45 327.33,-322.96 296.69,-270.51 312.06,-197.11 325.83,-153.75" />
<polygon fill="black" stroke="black" points="329.43,-155 329.26,-144.4 322.79,-152.79 329.43,-155" />
</g>

<g id="edge12" class="edge">
<title>XHTML-&gt;yExtensions</title>
<path fill="none" stroke="black" d="M454.05,-366.96C475.61,-359.14 502.19,-345.45 515.33,-322.96 527.37,-302.34 526.66,-290.25 515.33,-269.22 506.26,-252.4 490.4,-239.4 474.26,-229.76" />
<polygon fill="black" stroke="black" points="476.22,-226.28 465.78,-224.47 472.8,-232.4 476.22,-226.28" />
</g>

<g id="edge13" class="edge">
<title>yExtensions-&gt;Ranges</title>
<path fill="none" stroke="black" d="M431.76,-179.64C439.89,-155.91 448.41,-119.89 439.33,-89.74 436.12,-79.1 430.42,-68.6 424.27,-59.37" />
<polygon fill="black" stroke="black" points="426.69,-57.72 418.05,-51.59 420.98,-61.77 426.69,-57.72" />
</g>

<g id="edge14" class="edge">
<title>yExtensions-&gt;UnicodeSupplement</title>
<path fill="none" stroke="black" d="M398.92,-181.37C390.09,-171.93 379.8,-160.92 370.28,-150.73" />
<polygon fill="black" stroke="black" points="373.24,-148.7 363.85,-143.78 368.12,-153.48 373.24,-148.7" />
</g>
</g>
</svg>