<svg xmlns="http://www.w3.org/2000/svg" width="685pt" height="403pt" viewBox="0.00 0.00 685.38 402.96" xmlns:xlink="http://www.w3.org/1999/xlink">
<style>
a.external_repository_anchor {
  fill: #0366d6;
  text-decoration: underline;
}
</style><g id="graph0" class="graph" transform="scale(1 1) rotate(0) translate(4 398.96)">
<title>XHTMLDependenciesGraph</title>
<polygon fill="white" stroke="transparent" points="-4,4 -4,-398.96 681.38,-398.96 681.38,4 -4,4" />

<g id="node1" class="node">
<title>BonaFideCharacterSet</title>
<ellipse fill="none" stroke="black" cx="558.33" cy="-206.35" rx="98.08" ry="26.74" />
<text text-anchor="middle" x="558.33" y="-210.15" font-family="monospace" font-size="12px"><a href="https://github.com/YOCKOW/SwiftBonaFideCharacterSet.git" xlink:href="https://github.com/YOCKOW/SwiftBonaFideCharacterSet.git" class="external_repository_anchor">BonaFideCharacterSet</a></text>
<text text-anchor="middle" x="558.33" y="-195.15" font-family="monospace" font-size="12px">@1.6.2</text>
</g>

<g id="node4" class="node">
<title>Predicate</title>
<ellipse fill="none" stroke="black" cx="558.33" cy="-116.61" rx="47.25" ry="26.74" />
<text text-anchor="middle" x="558.33" y="-120.41" font-family="monospace" font-size="12px"><a href="https://github.com/YOCKOW/SwiftPredicate.git" xlink:href="https://github.com/YOCKOW/SwiftPredicate.git" class="external_repository_anchor">Predicate</a></text>
<text text-anchor="middle" x="558.33" y="-105.41" font-family="monospace" font-size="12px">@1.2.1</text>
</g>

<g id="edge1" class="edge">
<title>BonaFideCharacterSet-&gt;Predicate</title>
<path fill="none" stroke="black" d="M558.33,-179.03C558.33,-171.06 558.33,-162.17 558.33,-153.68" />
<polygon fill="black" stroke="black" points="561.83,-153.61 558.33,-143.61 554.83,-153.61 561.83,-153.61" />
</g>

<g id="node6" class="node">
<title>Ranges</title>
<ellipse fill="none" stroke="black" cx="483.33" cy="-26.87" rx="40.11" ry="26.74" />
<text text-anchor="middle" x="483.33" y="-30.67" font-family="monospace" font-size="12px"><a href="https://github.com/YOCKOW/SwiftRanges.git" xlink:href="https://github.com/YOCKOW/SwiftRanges.git" class="external_repository_anchor">Ranges</a></text>
<text text-anchor="middle" x="483.33" y="-15.67" font-family="monospace" font-size="12px">@3.1.1</text>
</g>

<g id="edge2" class="edge">
<title>BonaFideCharacterSet-&gt;Ranges</title>
<path fill="none" stroke="black" d="M529.76,-180.47C519.54,-170.05 508.93,-157.18 502.33,-143.48 490.38,-118.69 485.75,-87.82 484.04,-64.21" />
<polygon fill="black" stroke="black" points="487.52,-63.71 483.45,-53.93 480.53,-64.11 487.52,-63.71" />
</g>

<g id="node2" class="node">
<title>Bootstring</title>
<ellipse fill="none" stroke="black" cx="52.33" cy="-26.87" rx="52.15" ry="26.74" />
<text text-anchor="middle" x="52.33" y="-30.67" font-family="monospace" font-size="12px"><a href="https://github.com/YOCKOW/SwiftBootstring.git" xlink:href="https://github.com/YOCKOW/SwiftBootstring.git" class="external_repository_anchor">Bootstring</a></text>
<text text-anchor="middle" x="52.33" y="-15.67" font-family="monospace" font-size="12px">@1.1.0</text>
</g>

<g id="node3" class="node">
<title>NetworkGear</title>
<ellipse fill="none" stroke="black" cx="187.33" cy="-296.09" rx="63.78" ry="26.74" />
<text text-anchor="middle" x="187.33" y="-299.89" font-family="monospace" font-size="12px"><a href="https://github.com/YOCKOW/SwiftNetworkGear.git" xlink:href="https://github.com/YOCKOW/SwiftNetworkGear.git" class="external_repository_anchor">NetworkGear</a></text>
<text text-anchor="middle" x="187.33" y="-284.89" font-family="monospace" font-size="12px">@0.14.4</text>
</g>

<g id="edge3" class="edge">
<title>NetworkGear-&gt;BonaFideCharacterSet</title>
<path fill="none" stroke="black" d="M242.07,-282.14C303.77,-267.55 404.73,-243.67 475.96,-226.83" />
<polygon fill="black" stroke="black" points="476.88,-230.21 485.81,-224.5 475.27,-223.4 476.88,-230.21" />
</g>

<g id="edge4" class="edge">
<title>NetworkGear-&gt;Bootstring</title>
<path fill="none" stroke="black" d="M174.38,-269.47C149.98,-221.16 97.15,-116.6 69.69,-62.25" />
<polygon fill="black" stroke="black" points="72.67,-60.37 65.03,-53.02 66.42,-63.53 72.67,-60.37" />
</g>

<g id="node5" class="node">
<title>PublicSuffix</title>
<ellipse fill="none" stroke="black" cx="182.33" cy="-26.87" rx="59.29" ry="26.74" />
<text text-anchor="middle" x="182.33" y="-30.67" font-family="monospace" font-size="12px"><a href="https://github.com/YOCKOW/SwiftPublicSuffix.git" xlink:href="https://github.com/YOCKOW/SwiftPublicSuffix.git" class="external_repository_anchor">PublicSuffix</a></text>
<text text-anchor="middle" x="182.33" y="-15.67" font-family="monospace" font-size="12px">@2.0.2</text>
</g>

<g id="edge5" class="edge">
<title>NetworkGear-&gt;PublicSuffix</title>
<path fill="none" stroke="black" d="M186.84,-268.98C185.94,-221.09 184.03,-119.1 183.01,-64.37" />
<polygon fill="black" stroke="black" points="186.5,-64.02 182.82,-54.08 179.5,-64.15 186.5,-64.02" />
</g>

<g id="edge6" class="edge">
<title>NetworkGear-&gt;Ranges</title>
<path fill="none" stroke="black" d="M192.57,-269.2C203.07,-219.8 227.95,-114.79 254.33,-89.74 302.66,-43.84 381.41,-31.25 432.8,-28.19" />
<polygon fill="black" stroke="black" points="433.19,-31.68 443.01,-27.69 432.85,-24.69 433.19,-31.68" />
</g>

<g id="node8" class="node">
<title>UnicodeSupplement</title>
<ellipse fill="none" stroke="black" cx="354.33" cy="-116.61" rx="90.52" ry="26.74" />
<text text-anchor="middle" x="354.33" y="-120.41" font-family="monospace" font-size="12px"><a href="https://github.com/YOCKOW/SwiftUnicodeSupplement.git" xlink:href="https://github.com/YOCKOW/SwiftUnicodeSupplement.git" class="external_repository_anchor">UnicodeSupplement</a></text>
<text text-anchor="middle" x="354.33" y="-105.41" font-family="monospace" font-size="12px">@1.0.1</text>
</g>

<g id="edge7" class="edge">
<title>NetworkGear-&gt;UnicodeSupplement</title>
<path fill="none" stroke="black" d="M206.1,-270.34C230.1,-238.82 269.5,-187.43 277.33,-179.48 288.18,-168.46 300.94,-157.53 312.92,-147.98" />
<polygon fill="black" stroke="black" points="315.34,-150.54 321.06,-141.62 311.02,-145.02 315.34,-150.54" />
</g>

<g id="node10" class="node">
<title>yExtensions</title>
<ellipse fill="none" stroke="black" cx="345.33" cy="-206.35" rx="58.88" ry="26.74" />
<text text-anchor="middle" x="345.33" y="-210.15" font-family="monospace" font-size="12px"><a href="https://github.com/YOCKOW/ySwiftExtensions.git" xlink:href="https://github.com/YOCKOW/ySwiftExtensions.git" class="external_repository_anchor">yExtensions</a></text>
<text text-anchor="middle" x="345.33" y="-195.15" font-family="monospace" font-size="12px">@1.6.2</text>
</g>

<g id="edge8" class="edge">
<title>NetworkGear-&gt;yExtensions</title>
<path fill="none" stroke="black" d="M224.77,-274.3C247.35,-261.76 276.25,-245.71 300.1,-232.47" />
<polygon fill="black" stroke="black" points="301.92,-235.46 308.97,-227.54 298.53,-229.34 301.92,-235.46" />
</g>

<g id="edge9" class="edge">
<title>Predicate-&gt;Ranges</title>
<path fill="none" stroke="black" d="M538.23,-92.1C529.36,-81.72 518.82,-69.4 509.36,-58.33" />
<polygon fill="black" stroke="black" points="511.86,-55.87 502.7,-50.54 506.54,-60.41 511.86,-55.87" />
</g>

<g id="node7" class="node">
<title>StringComposition</title>
<ellipse fill="none" stroke="black" cx="392.33" cy="-296.09" rx="84.71" ry="26.74" />
<text text-anchor="middle" x="392.33" y="-299.89" font-family="monospace" font-size="12px"><a href="https://github.com/YOCKOW/SwiftStringComposition.git" xlink:href="https://github.com/YOCKOW/SwiftStringComposition.git" class="external_repository_anchor">StringComposition</a></text>
<text text-anchor="middle" x="392.33" y="-284.89" font-family="monospace" font-size="12px">@2.0.2</text>
</g>

<g id="edge10" class="edge">
<title>StringComposition-&gt;yExtensions</title>
<path fill="none" stroke="black" d="M378.48,-269.24C373.85,-260.6 368.61,-250.82 363.69,-241.64" />
<polygon fill="black" stroke="black" points="366.72,-239.88 358.91,-232.71 360.55,-243.18 366.72,-239.88" />
</g>

<g id="edge11" class="edge">
<title>UnicodeSupplement-&gt;Ranges</title>
<path fill="none" stroke="black" d="M389.58,-91.63C407.4,-79.51 429,-64.82 446.97,-52.59" />
<polygon fill="black" stroke="black" points="449.17,-55.33 455.47,-46.81 445.24,-49.54 449.17,-55.33" />
</g>

<g id="node9" class="node">
<title>XHTML</title>
<polygon fill="none" stroke="black" points="480.83,-394.96 415.83,-394.96 415.83,-358.96 480.83,-358.96 480.83,-394.96" />
<text text-anchor="middle" x="448.33" y="-373.26" font-family="monospace" font-size="12px">XHTML</text>
</g>

<g id="edge12" class="edge">
<title>XHTML-&gt;BonaFideCharacterSet</title>
<path fill="none" stroke="black" d="M479.05,-358.94C493.02,-349.85 508.76,-337.53 519.33,-322.96 536.52,-299.25 546.52,-267.44 552.08,-243.18" />
<polygon fill="black" stroke="black" points="555.52,-243.81 554.19,-233.29 548.68,-242.34 555.52,-243.81" />
</g>

<g id="edge13" class="edge">
<title>XHTML-&gt;NetworkGear</title>
<path fill="none" stroke="black" d="M415.82,-366.95C379.14,-356.69 317.76,-339.24 265.33,-322.96 258.92,-320.97 252.23,-318.84 245.59,-316.68" />
<polygon fill="black" stroke="black" points="246.51,-313.3 235.91,-313.53 244.33,-319.96 246.51,-313.3" />
</g>

<g id="edge14" class="edge">
<title>XHTML-&gt;Ranges</title>
<path fill="none" stroke="black" d="M480.93,-366.18C531.8,-348.91 628.07,-307.61 665.33,-233.22 695.63,-172.71 663.95,-135.75 614.33,-89.74 590.26,-67.43 556.7,-51.79 529.57,-41.81" />
<polygon fill="black" stroke="black" points="530.49,-38.43 519.89,-38.39 528.16,-45.03 530.49,-38.43" />
</g>

<g id="edge15" class="edge">
<title>XHTML-&gt;StringComposition</title>
<path fill="none" stroke="black" d="M436.17,-358.85C430.35,-350.65 423.17,-340.53 416.31,-330.87" />
<polygon fill="black" stroke="black" points="419.06,-328.69 410.41,-322.56 413.35,-332.74 419.06,-328.69" />
</g>

<g id="edge16" class="edge">
<title>XHTML-&gt;UnicodeSupplement</title>
<path fill="none" stroke="black" d="M464.79,-358.88C472.98,-349.18 482.03,-336.33 486.33,-322.96 493.64,-300.22 495.31,-291.35 486.33,-269.22 477.93,-248.54 465.59,-250.38 451.33,-233.22 432.63,-210.72 431.91,-202.07 413.33,-179.48 405.07,-169.44 395.55,-159.03 386.61,-149.68" />
<polygon fill="black" stroke="black" points="389.06,-147.18 379.59,-142.43 384.03,-152.05 389.06,-147.18" />
</g>

<g id="edge17" class="edge">
<title>XHTML-&gt;yExtensions</title>
<path fill="none" stroke="black" d="M415.56,-374.79C380.01,-371.57 324.8,-360.39 298.33,-322.96 280.23,-297.37 297.59,-263.79 316.11,-239.42" />
<polygon fill="black" stroke="black" points="318.9,-241.53 322.39,-231.53 313.43,-237.18 318.9,-241.53" />
</g>

<g id="edge18" class="edge">
<title>yExtensions-&gt;UnicodeSupplement</title>
<path fill="none" stroke="black" d="M347.98,-179.5C348.8,-171.45 349.73,-162.42 350.61,-153.8" />
<polygon fill="black" stroke="black" points="354.12,-153.88 351.66,-143.58 347.16,-153.17 354.12,-153.88" />
</g>
</g>
</svg>
